<?xml version="1.0" encoding="UTF-8" standalone="no"?>
<!DOCTYPE svg PUBLIC "-//W3C//DTD SVG 1.1//EN" "http://www.w3.org/Graphics/SVG/1.1/DTD/svg11.dtd">
<svg width="100%" height="100%" viewBox="0 0 1984 878" version="1.1" xmlns="http://www.w3.org/2000/svg" xmlns:xlink="http://www.w3.org/1999/xlink" xml:space="preserve" xmlns:serif="http://www.serif.com/" style="fill-rule:evenodd;clip-rule:evenodd;stroke-linecap:round;stroke-linejoin:round;stroke-miterlimit:1.5;">
    <g transform="matrix(1,0,0,1,-508.077661,-430.202748)">
        <g transform="matrix(1.425974,0,0,1.425974,-515.162544,-259.532142)">
            <g transform="matrix(1,0,0,1,-68.807229,163.826735)">
                <g transform="matrix(1.995149,-0.050942,0.052614,2.060604,-1509.416408,-498.331162)">
                    <path d="M1440.882,443.484C1474.635,443.484 1500.03,474.713 1500.03,501.735C1500.03,528.756 1476.714,546.131 1442.961,546.131C1409.208,546.131 1377.077,527.918 1377.687,494.51C1378.179,467.493 1407.128,443.484 1440.882,443.484Z" style="fill:rgb(161,174,219);"/>
                </g>
                <g transform="matrix(1,0,0,1.332364,1.055447,-99.281083)">
                    <ellipse cx="1336.704" cy="342.111" rx="35.885" ry="27.522" style="fill:rgb(161,174,219);"/>
                </g>
                <g transform="matrix(1,0,0,1.332364,113.74637,-91.035405)">
                    <ellipse cx="1336.704" cy="342.111" rx="35.885" ry="27.522" style="fill:rgb(161,174,219);"/>
                </g>
                <g transform="matrix(0.542651,0,0,0.718769,608.53365,108.331147)">
                    <ellipse cx="1336.704" cy="342.111" rx="35.885" ry="27.522" style="fill:white;"/>
                </g>
                <g transform="matrix(0.3144,0,0,0.416439,921.828121,210.851883)">
                    <ellipse cx="1336.704" cy="342.111" rx="35.885" ry="27.522" style="fill:rgb(29,19,69);"/>
                </g>
                <g transform="matrix(0.542651,0,0,0.718769,732.482665,113.424559)">
                    <ellipse cx="1336.704" cy="342.111" rx="35.885" ry="27.522" style="fill:white;"/>
                </g>
                <g transform="matrix(0.3144,0,0,0.416439,1045.667163,217.814312)">
                    <ellipse cx="1336.704" cy="342.111" rx="35.885" ry="27.522" style="fill:rgb(29,19,69);"/>
                </g>
                <path d="M1377.033,494.92C1377.033,494.92 1363.84,546.813 1364.719,567.922L1323.381,572.32" style="fill:none;stroke:rgb(29,19,69);stroke-width:11.69px;"/>
                <g transform="matrix(1,0,0,1,-84.435685,-5.717)">
                    <path d="M1377.033,494.92C1377.033,494.92 1363.84,546.813 1364.719,567.922L1323.381,572.32" style="fill:none;stroke:rgb(29,19,69);stroke-width:11.69px;"/>
                </g>
                <path d="M1494.451,460.842C1494.451,460.842 1505.445,523.945 1528.313,548.572C1528.313,548.572 1531.776,542.415 1546.536,542.415C1561.296,542.415 1568.772,549.452 1568.772,549.452" style="fill:none;stroke:rgb(29,19,69);stroke-width:11.69px;"/>
                <g transform="matrix(0.99033,-0.138728,0.138728,0.99033,423.159747,124.338439)">
                    <path d="M882.93,395.175C888.081,420.932 946.461,422.031 951.644,411.666" style="fill:none;stroke:rgb(29,19,69);stroke-width:5.84px;"/>
                </g>
            </g>
            <g transform="matrix(8.78519,0,0,8.78519,-8324.667248,-6017.754533)">
                <g transform="matrix(0.999131,0.041688,-0.041688,0.999131,33.943474,-42.636515)">
                    <path d="M1044.739,775.047C1045.272,775.047 1045.756,775.214 1046.189,775.547C1046.622,775.88 1046.981,776.364 1047.264,776.997C1047.547,777.63 1047.789,778.322 1047.989,779.072C1048.189,779.822 1048.339,780.73 1048.439,781.797C1048.539,782.864 1048.622,783.88 1048.689,784.847C1048.756,785.814 1048.789,786.939 1048.789,788.222L1048.789,791.572C1048.789,792.522 1048.772,793.639 1048.739,794.922C1048.706,796.205 1048.689,797.23 1048.689,797.997C1048.689,802.164 1047.747,805.23 1045.864,807.197C1043.981,809.164 1041.339,810.147 1037.939,810.147C1036.406,810.147 1035.072,809.989 1033.939,809.672C1032.806,809.355 1031.956,808.939 1031.389,808.422C1030.822,807.905 1030.414,807.397 1030.164,806.897C1029.914,806.397 1029.789,805.897 1029.789,805.397C1029.789,804.73 1029.889,804.005 1030.089,803.222C1030.289,802.439 1030.672,801.705 1031.239,801.022C1031.806,800.339 1032.472,799.997 1033.239,799.997C1033.806,799.997 1034.297,800.164 1034.714,800.497C1035.131,800.83 1035.456,801.197 1035.689,801.597C1035.922,801.997 1036.272,802.364 1036.739,802.697C1037.206,803.03 1037.772,803.197 1038.439,803.197C1039.539,803.197 1040.289,801.564 1040.689,798.297C1039.322,798.63 1038.097,798.764 1037.014,798.697C1035.931,798.63 1034.997,798.33 1034.214,797.797C1033.431,797.264 1032.764,796.622 1032.214,795.872C1031.664,795.122 1031.222,794.23 1030.889,793.197C1030.556,792.164 1030.314,791.139 1030.164,790.122C1030.014,789.105 1029.939,788.047 1029.939,786.947C1029.939,783.747 1030.647,780.972 1032.064,778.622C1033.481,776.272 1035.239,775.097 1037.339,775.097C1038.106,775.097 1038.806,775.155 1039.439,775.272C1040.072,775.389 1040.547,775.505 1040.864,775.622C1041.181,775.739 1041.456,775.889 1041.689,776.072C1041.922,776.255 1042.056,776.372 1042.089,776.422C1042.122,776.472 1042.156,776.53 1042.189,776.597C1042.489,775.964 1042.856,775.522 1043.289,775.272C1043.722,775.022 1044.072,774.93 1044.339,774.997L1044.739,775.047ZM1041.089,791.147L1041.089,784.247C1041.089,784.214 1041.064,784.18 1041.014,784.147C1040.964,784.114 1040.864,784.039 1040.714,783.922C1040.564,783.805 1040.414,783.705 1040.264,783.622C1040.114,783.539 1039.939,783.464 1039.739,783.397C1039.539,783.33 1039.347,783.297 1039.164,783.297C1038.981,783.297 1038.797,783.347 1038.614,783.447C1038.431,783.547 1038.272,783.697 1038.139,783.897C1037.972,784.164 1037.814,784.564 1037.664,785.097C1037.514,785.63 1037.406,786.222 1037.339,786.872C1037.272,787.522 1037.272,788.155 1037.339,788.772C1037.406,789.389 1037.572,789.93 1037.839,790.397C1038.106,790.864 1038.506,791.172 1039.039,791.322C1039.572,791.472 1040.256,791.414 1041.089,791.147Z" style="fill:rgb(150,205,166);fill-rule:nonzero;"/>
                </g>
                <g transform="matrix(0.989451,-0.144871,0.144871,0.989451,-103.06151,161.844351)">
                    <path d="M1063.339,793.897C1063.772,793.664 1064.297,793.497 1064.914,793.397C1065.531,793.297 1066.172,793.289 1066.839,793.372C1067.506,793.455 1068.072,793.78 1068.539,794.347C1069.006,794.914 1069.239,795.68 1069.239,796.647C1069.239,797.947 1068.814,799.022 1067.964,799.872C1067.114,800.722 1066.114,801.305 1064.964,801.622C1063.814,801.939 1062.522,802.097 1061.089,802.097L1059.114,802.097C1058.664,802.097 1058.014,802.022 1057.164,801.872C1056.314,801.722 1055.622,801.522 1055.089,801.272C1054.556,801.022 1053.947,800.63 1053.264,800.097C1052.581,799.564 1052.047,798.922 1051.664,798.172C1051.281,797.422 1050.947,796.455 1050.664,795.272C1050.381,794.089 1050.239,792.747 1050.239,791.247C1050.239,785.614 1051.031,781.505 1052.614,778.922C1054.197,776.339 1056.889,775.047 1060.689,775.047L1061.164,775.047C1061.381,775.047 1061.781,775.097 1062.364,775.197C1062.947,775.297 1063.514,775.43 1064.064,775.597C1064.614,775.764 1065.214,776.03 1065.864,776.397C1066.514,776.764 1067.081,777.205 1067.564,777.722C1068.047,778.239 1068.447,778.914 1068.764,779.747C1069.081,780.58 1069.239,781.514 1069.239,782.547C1069.239,784.014 1069.014,785.289 1068.564,786.372C1068.114,787.455 1067.564,788.289 1066.914,788.872C1066.264,789.455 1065.481,789.922 1064.564,790.272C1063.647,790.622 1062.822,790.847 1062.089,790.947C1061.356,791.047 1060.572,791.097 1059.739,791.097L1059.564,791.097C1059.481,791.097 1059.339,791.13 1059.139,791.197C1058.939,791.264 1058.764,791.347 1058.614,791.447C1058.464,791.547 1058.331,791.714 1058.214,791.947C1058.097,792.18 1058.039,792.464 1058.039,792.797C1058.039,793.597 1058.222,794.155 1058.589,794.472C1058.956,794.789 1059.522,794.947 1060.289,794.947C1060.889,794.947 1061.339,794.889 1061.639,794.772C1061.939,794.655 1062.506,794.364 1063.339,793.897ZM1058.339,783.497C1058.272,783.83 1058.347,784.139 1058.564,784.422C1058.781,784.705 1059.072,784.897 1059.439,784.997C1060.572,785.264 1061.406,785.205 1061.939,784.822C1062.472,784.439 1062.739,783.93 1062.739,783.297C1062.739,782.83 1062.664,782.472 1062.514,782.222C1062.364,781.972 1062.106,781.78 1061.739,781.647C1061.372,781.514 1060.856,781.447 1060.189,781.447C1059.256,781.447 1058.639,782.13 1058.339,783.497Z" style="fill:rgb(150,205,166);fill-rule:nonzero;"/>
                </g>
                <g transform="matrix(0.996776,0.080238,-0.080238,0.996776,66.758621,-84.139225)">
                    <path d="M1089.889,787.347L1089.889,787.547C1089.889,793.08 1089.764,796.872 1089.514,798.922C1089.264,800.972 1088.606,801.997 1087.539,801.997C1085.839,801.997 1084.706,801.255 1084.139,799.772C1083.572,798.289 1083.289,795.747 1083.289,792.147C1083.289,788.814 1082.881,786.564 1082.064,785.397C1081.247,784.23 1080.089,784.03 1078.589,784.797L1078.589,790.097C1078.589,797.197 1077.568,801.164 1075.527,801.997C1075.165,802.164 1074.852,802.197 1074.589,802.097C1073.879,802.097 1073.271,801.789 1072.765,801.172C1072.258,800.555 1071.87,799.689 1071.6,798.572C1071.33,797.455 1071.119,796.289 1070.967,795.072C1070.815,793.855 1070.739,792.455 1070.739,790.872L1070.739,780.247C1070.739,779.314 1070.876,778.497 1071.149,777.797C1071.423,777.097 1071.748,776.589 1072.124,776.272C1072.5,775.955 1072.885,775.697 1073.278,775.497C1073.671,775.297 1074.005,775.18 1074.279,775.147L1074.689,775.047C1075.189,775.047 1075.614,775.097 1075.964,775.197C1076.314,775.297 1076.631,775.489 1076.914,775.772C1077.197,776.055 1077.439,776.43 1077.639,776.897C1079.406,775.697 1080.989,775.097 1082.389,775.097C1082.922,775.097 1083.489,775.214 1084.089,775.447C1084.689,775.68 1085.339,776.097 1086.039,776.697C1086.739,777.297 1087.372,778.039 1087.939,778.922C1088.506,779.805 1088.972,780.98 1089.339,782.447C1089.706,783.914 1089.889,785.547 1089.889,787.347Z" style="fill:rgb(150,205,166);fill-rule:nonzero;"/>
                </g>
                <g transform="matrix(0.994803,-0.101821,0.101821,0.994803,-74.575551,116.163607)">
                    <path d="M1106.189,775.047C1106.797,775.047 1107.286,775.114 1107.658,775.247C1108.029,775.38 1108.375,775.655 1108.696,776.072C1109.017,776.489 1109.27,777.022 1109.455,777.672C1109.641,778.322 1109.793,779.23 1109.912,780.397C1110.03,781.564 1110.089,782.905 1110.089,784.422L1110.089,790.097C1110.089,797.197 1109.085,801.164 1107.076,801.997C1106.682,802.164 1106.352,802.197 1106.089,802.097C1105.222,802.097 1104.506,801.58 1103.939,800.547C1102.906,801.147 1101.881,801.564 1100.864,801.797C1099.847,802.03 1098.864,802.089 1097.914,801.972C1096.964,801.855 1096.081,801.514 1095.264,800.947C1094.447,800.38 1093.731,799.63 1093.114,798.697C1092.497,797.764 1092.014,796.564 1091.664,795.097C1091.314,793.63 1091.139,791.964 1091.139,790.097C1091.139,787.397 1091.381,785.022 1091.864,782.972C1092.347,780.922 1092.997,779.355 1093.814,778.272C1094.631,777.189 1095.489,776.389 1096.389,775.872C1097.289,775.355 1098.206,775.097 1099.139,775.097C1100.206,775.097 1101.106,775.205 1101.839,775.422C1102.572,775.639 1103.039,775.864 1103.239,776.097L1103.589,776.397C1103.922,776.03 1104.306,775.739 1104.739,775.522C1105.172,775.305 1105.522,775.18 1105.789,775.147L1106.189,775.047ZM1099.989,784.497C1099.456,784.564 1099.039,785.63 1098.739,787.697C1098.372,790.397 1098.606,792.247 1099.439,793.247C1100.139,793.98 1101.072,793.897 1102.239,792.997L1102.239,785.397C1102.239,785.364 1102.214,785.322 1102.164,785.272C1102.114,785.222 1102.022,785.139 1101.889,785.022C1101.756,784.905 1101.614,784.805 1101.464,784.722C1101.314,784.639 1101.106,784.572 1100.839,784.522C1100.572,784.472 1100.289,784.464 1099.989,784.497Z" style="fill:rgb(150,205,166);fill-rule:nonzero;"/>
                </g>
                <g transform="matrix(0.999219,-0.039523,0.039523,0.999219,-30.134853,44.736215)">
                    <path d="M1117.139,767.097C1117.672,767.097 1118.139,767.306 1118.539,767.723C1118.939,768.14 1119.272,768.791 1119.539,769.676C1119.806,770.56 1120.031,771.462 1120.214,772.38C1120.397,773.298 1120.531,774.482 1120.614,775.934C1120.697,777.387 1120.764,778.647 1120.814,779.715C1120.864,780.783 1120.881,782.16 1120.864,783.846C1120.847,785.532 1120.831,786.808 1120.814,787.677C1120.797,788.544 1120.756,789.746 1120.689,791.281C1120.656,792.25 1120.639,792.951 1120.639,793.384C1120.606,794.253 1120.589,794.937 1120.589,795.438C1120.589,796.739 1120.422,797.857 1120.089,798.792C1119.756,799.727 1119.322,800.412 1118.789,800.845C1118.256,801.279 1117.814,801.58 1117.464,801.747C1117.114,801.914 1116.789,802.014 1116.489,802.047L1116.189,802.047C1115.056,802.047 1114.206,801.663 1113.639,800.895C1113.072,800.128 1112.656,798.642 1112.389,796.439C1112.089,793.869 1111.939,789.279 1111.939,782.669C1111.939,773.823 1113.189,768.716 1115.689,767.347C1116.256,767.047 1116.739,766.964 1117.139,767.097Z" style="fill:rgb(150,205,166);fill-rule:nonzero;"/>
                </g>
                <g transform="matrix(0.995367,0.09615,-0.09615,0.995367,80.652894,-104.688754)">
                    <path d="M1126.639,775.047C1127.247,775.047 1127.736,775.114 1128.108,775.247C1128.479,775.38 1128.825,775.655 1129.146,776.072C1129.467,776.489 1129.72,777.022 1129.905,777.672C1130.091,778.322 1130.243,779.23 1130.362,780.397C1130.48,781.564 1130.539,782.905 1130.539,784.422L1130.539,790.097C1130.539,797.197 1129.518,801.164 1127.477,801.997C1127.115,802.164 1126.802,802.197 1126.539,802.097C1125.829,802.097 1125.221,801.789 1124.715,801.172C1124.208,800.555 1123.82,799.689 1123.55,798.572C1123.28,797.455 1123.069,796.289 1122.917,795.072C1122.765,793.855 1122.689,792.455 1122.689,790.872L1122.689,780.247C1122.689,779.314 1122.826,778.497 1123.099,777.797C1123.373,777.097 1123.698,776.589 1124.074,776.272C1124.45,775.955 1124.835,775.697 1125.228,775.497C1125.621,775.297 1125.955,775.18 1126.229,775.147L1126.639,775.047ZM1129.539,772.172C1129.039,772.989 1128.331,773.505 1127.414,773.722C1126.497,773.939 1125.631,773.797 1124.814,773.297C1123.997,772.797 1123.481,772.089 1123.264,771.172C1123.047,770.255 1123.189,769.389 1123.689,768.572C1124.189,767.755 1124.897,767.239 1125.814,767.022C1126.731,766.805 1127.597,766.947 1128.414,767.447C1129.231,767.947 1129.747,768.655 1129.964,769.572C1130.181,770.489 1130.039,771.355 1129.539,772.172Z" style="fill:rgb(150,205,166);fill-rule:nonzero;"/>
                </g>
                <path d="M1138.089,801.097C1137.422,801.764 1136.614,802.097 1135.664,802.097C1134.714,802.097 1133.906,801.764 1133.239,801.097C1132.572,800.43 1132.239,799.622 1132.239,798.672C1132.239,797.722 1132.572,796.914 1133.239,796.247C1133.906,795.58 1134.714,795.247 1135.664,795.247C1136.614,795.247 1137.422,795.58 1138.089,796.247C1138.756,796.914 1139.089,797.722 1139.089,798.672C1139.089,799.622 1138.756,800.43 1138.089,801.097Z" style="fill:rgb(150,205,166);fill-rule:nonzero;"/>
                <g transform="matrix(0.99554,0.09434,-0.09434,0.99554,79.544015,-105.357735)">
                    <path d="M1167.339,787.347C1167.339,794.114 1167.156,798.264 1166.789,799.797C1166.456,801.264 1165.872,801.997 1165.039,801.997C1163.339,801.997 1162.206,801.253 1161.639,799.766C1161.072,798.278 1160.789,795.729 1160.789,792.119C1160.789,786.971 1159.806,784.397 1157.839,784.397C1157.906,785.358 1157.939,786.369 1157.939,787.43L1157.939,793.943C1157.939,795.235 1157.872,796.636 1157.737,798.144C1157.603,799.652 1157.368,800.671 1157.032,801.202C1156.696,801.732 1156.243,801.997 1155.672,801.997C1153.959,801.997 1152.816,801.255 1152.245,799.772C1151.674,798.289 1151.389,795.747 1151.389,792.147C1151.389,787.18 1150.472,784.58 1148.639,784.347L1148.639,790.097C1148.639,797.197 1147.618,801.164 1145.577,801.997C1145.215,802.164 1144.902,802.197 1144.639,802.097C1143.929,802.097 1143.321,801.789 1142.815,801.172C1142.308,800.555 1141.92,799.689 1141.65,798.572C1141.38,797.455 1141.169,796.289 1141.017,795.072C1140.865,793.855 1140.789,792.455 1140.789,790.872L1140.789,780.247C1140.789,779.314 1140.926,778.497 1141.199,777.797C1141.473,777.097 1141.798,776.589 1142.174,776.272C1142.55,775.955 1142.935,775.697 1143.328,775.497C1143.721,775.297 1144.055,775.18 1144.329,775.147L1144.739,775.047C1146.072,775.047 1146.989,775.53 1147.489,776.497C1148.622,775.564 1149.672,775.097 1150.639,775.097C1152.439,775.097 1153.922,775.714 1155.089,776.947C1156.856,775.714 1158.456,775.097 1159.889,775.097C1160.422,775.097 1160.989,775.214 1161.589,775.447C1162.189,775.68 1162.839,776.097 1163.539,776.697C1164.239,777.297 1164.864,778.039 1165.414,778.922C1165.964,779.805 1166.422,780.98 1166.789,782.447C1167.156,783.914 1167.339,785.547 1167.339,787.347Z" style="fill:rgb(150,205,166);fill-rule:nonzero;"/>
                </g>
                <path d="M1182.739,787.997C1186.839,794.197 1188.356,798.38 1187.289,800.547C1187.156,800.847 1186.972,801.089 1186.739,801.272C1186.506,801.455 1186.314,801.58 1186.164,801.647C1186.014,801.714 1185.872,801.747 1185.739,801.747C1185.539,801.847 1185.339,801.897 1185.139,801.897C1183.606,801.897 1181.239,799.53 1178.039,794.797C1174.839,799.53 1172.472,801.897 1170.939,801.897C1170.739,801.897 1170.539,801.847 1170.339,801.747C1169.639,801.647 1169.122,801.247 1168.789,800.547C1167.756,798.38 1169.289,794.197 1173.389,787.997L1173.589,787.697C1173.189,786.997 1172.639,786.064 1171.939,784.897C1171.139,783.497 1170.589,782.58 1170.289,782.147C1168.956,779.98 1168.522,778.247 1168.989,776.947C1169.222,776.28 1169.622,775.83 1170.189,775.597C1171.456,774.997 1172.581,775.047 1173.564,775.747C1174.547,776.447 1176.039,778.214 1178.039,781.047C1180.039,778.214 1181.531,776.447 1182.514,775.747C1183.497,775.047 1184.622,774.997 1185.889,775.597C1186.456,775.83 1186.856,776.28 1187.089,776.947C1187.556,778.247 1187.122,779.98 1185.789,782.147C1185.489,782.58 1184.939,783.48 1184.139,784.847C1183.439,786.08 1182.889,787.03 1182.489,787.697L1182.739,787.997Z" style="fill:rgb(150,205,166);fill-rule:nonzero;"/>
            </g>
        </g>
    </g>
</svg>
