<?xml version="1.0" encoding="UTF-8" standalone="no"?>
<svg width="100%" height="100%" viewBox="625 -20 510 400" version="1.1" xmlns="http://www.w3.org/2000/svg" xmlns:xlink="http://www.w3.org/1999/xlink" xml:space="preserve" style="fill-rule:evenodd;clip-rule:evenodd;stroke-linecap:round;stroke-linejoin:round;stroke-miterlimit:1.5;">
    <g transform="matrix(1,0,0,1,-508.077661,-430.202748)">
        <g transform="matrix(1.425974,0,0,1.425974,-515.162544,-259.532142)">
            <g transform="matrix(1,0,0,1,-68.807229,163.826735)">
                <g transform="matrix(1.995149,-0.050942,0.052614,2.060604,-1509.416408,-498.331162)">
                    <path d="M1440.882,443.484C1474.635,443.484 1500.03,474.713 1500.03,501.735C1500.03,528.756 1476.714,546.131 1442.961,546.131C1409.208,546.131 1377.077,527.918 1377.687,494.51C1378.179,467.493 1407.128,443.484 1440.882,443.484Z" style="fill:rgb(161,174,219);"/>
                </g>
                <g transform="matrix(1,0,0,1.332364,1.055447,-99.281083)">
                    <ellipse cx="1336.704" cy="342.111" rx="35.885" ry="27.522" style="fill:rgb(161,174,219);"/>
                </g>
                <g transform="matrix(1,0,0,1.332364,113.74637,-91.035405)">
                    <ellipse cx="1336.704" cy="342.111" rx="35.885" ry="27.522" style="fill:rgb(161,174,219);"/>
                </g>
                <g transform="matrix(0.542651,0,0,0.718769,608.53365,108.331147)">
                    <ellipse cx="1336.704" cy="342.111" rx="35.885" ry="27.522" style="fill:white;"/>
                </g>
                <g transform="matrix(0.3144,0,0,0.416439,921.828121,210.851883)">
                    <ellipse cx="1336.704" cy="342.111" rx="35.885" ry="27.522" style="fill:rgb(29,19,69);"/>
                </g>
                <g transform="matrix(0.542651,0,0,0.718769,732.482665,113.424559)">
                    <ellipse cx="1336.704" cy="342.111" rx="35.885" ry="27.522" style="fill:white;"/>
                </g>
                <g transform="matrix(0.3144,0,0,0.416439,1045.667163,217.814312)">
                    <ellipse cx="1336.704" cy="342.111" rx="35.885" ry="27.522" style="fill:rgb(29,19,69);"/>
                </g>
                <path d="M1377.033,494.92C1377.033,494.92 1363.84,546.813 1364.719,567.922L1323.381,572.32" style="fill:none;stroke:rgb(29,19,69);stroke-width:11.69px;"/>
                <g transform="matrix(1,0,0,1,-84.435685,-5.717)">
                    <path d="M1377.033,494.92C1377.033,494.92 1363.84,546.813 1364.719,567.922L1323.381,572.32" style="fill:none;stroke:rgb(29,19,69);stroke-width:11.69px;"/>
                </g>
                <path d="M1494.451,460.842C1494.451,460.842 1505.445,523.945 1528.313,548.572C1528.313,548.572 1531.776,542.415 1546.536,542.415C1561.296,542.415 1568.772,549.452 1568.772,549.452" style="fill:none;stroke:rgb(29,19,69);stroke-width:11.69px;"/>
                <g transform="matrix(0.99033,-0.138728,0.138728,0.99033,423.159747,124.338439)">
                    <path d="M882.93,395.175C888.081,420.932 946.461,422.031 951.644,411.666" style="fill:none;stroke:rgb(29,19,69);stroke-width:5.84px;"/>
                </g>
            </g>
        </g>
    </g>
</svg>
